<?xml version="1.0" encoding="UTF-8" standalone="no"?>
<!-- Created with Inkscape (http://www.inkscape.org/) -->

<svg
   xmlns:dc="http://purl.org/dc/elements/1.1/"
   xmlns:cc="http://creativecommons.org/ns#"
   xmlns:rdf="http://www.w3.org/1999/02/22-rdf-syntax-ns#"
   xmlns:svg="http://www.w3.org/2000/svg"
   xmlns="http://www.w3.org/2000/svg"
   xmlns:sodipodi="http://sodipodi.sourceforge.net/DTD/sodipodi-0.dtd"
   xmlns:inkscape="http://www.inkscape.org/namespaces/inkscape"
   width="56.692913"
   height="56.692913"
   id="svg8860"
   version="1.1"
   inkscape:version="0.48.2 r9819"
   sodipodi:docname="Logo.svg"
   inkscape:export-filename="E:\Sid\AppEngine\Rev1\Logo500.png"
   inkscape:export-xdpi="793.75"
   inkscape:export-ydpi="793.75">
  <defs
     id="defs3">
    <filter
       inkscape:collect="always"
       id="filter9593"
       color-interpolation-filters="sRGB">
      <feGaussianBlur
         inkscape:collect="always"
         stdDeviation="0.25405557"
         id="feGaussianBlur9595" />
    </filter>
    <filter
       inkscape:collect="always"
       id="filter9597"
       color-interpolation-filters="sRGB">
      <feGaussianBlur
         inkscape:collect="always"
         stdDeviation="0.25405557"
         id="feGaussianBlur9599" />
    </filter>
    <filter
       inkscape:collect="always"
       id="filter9601"
       color-interpolation-filters="sRGB">
      <feGaussianBlur
         inkscape:collect="always"
         stdDeviation="0.25405557"
         id="feGaussianBlur9603" />
    </filter>
    <filter
       inkscape:collect="always"
       id="filter9605"
       color-interpolation-filters="sRGB">
      <feGaussianBlur
         inkscape:collect="always"
         stdDeviation="0.25405557"
         id="feGaussianBlur9607" />
    </filter>
    <filter
       inkscape:collect="always"
       id="filter9609"
       color-interpolation-filters="sRGB">
      <feGaussianBlur
         inkscape:collect="always"
         stdDeviation="0.25405557"
         id="feGaussianBlur9611" />
    </filter>
  </defs>
  <sodipodi:namedview
     inkscape:document-units="mm"
     id="base"
     pagecolor="#ffffff"
     bordercolor="#666666"
     borderopacity="1.0"
     inkscape:pageopacity="0.0"
     inkscape:pageshadow="2"
     inkscape:zoom="3.959798"
     inkscape:cx="116.48494"
     inkscape:cy="23.031309"
     inkscape:current-layer="layer1"
     showgrid="false"
     units="mm"
     fit-margin-top="0"
     fit-margin-left="0"
     fit-margin-right="0"
     fit-margin-bottom="0"
     inkscape:window-width="1920"
     inkscape:window-height="1017"
     inkscape:window-x="-8"
     inkscape:window-y="-8"
     inkscape:window-maximized="1"
     inkscape:snap-global="false">
    <inkscape:grid
       type="xygrid"
       id="grid8881"
       empspacing="5"
       visible="true"
       enabled="true"
       snapvisiblegridlinesonly="true" />
  </sodipodi:namedview>
  <metadata
     id="metadata4">
    <rdf:RDF>
      <cc:Work
         rdf:about="">
        <dc:format>image/svg+xml</dc:format>
        <dc:type
           rdf:resource="http://purl.org/dc/dcmitype/StillImage" />
        <dc:title></dc:title>
      </cc:Work>
    </rdf:RDF>
  </metadata>
  <g
     inkscape:label="Layer 1"
     inkscape:groupmode="layer"
     id="layer1"
     transform="translate(-231.74809,-331.92118)">
    <path
       style="fill:#ff3300;fill-opacity:1;fill-rule:evenodd;stroke:none"
       d="m 241.56569,359.80883 c -0.78212,-0.1218 -1.51245,-0.36113 -2.25793,-0.73991 -3.10913,-1.57976 -5.24165,-4.9046 -5.7622,-8.9839 -0.14898,-1.16744 -0.10461,-3.26662 0.0923,-4.36696 0.4233,-2.36555 1.29878,-4.29677 2.71061,-5.97933 1.33407,-1.58988 3.18685,-2.72478 4.97937,-3.05006 1.6404,-0.29766 3.66881,-0.0711 5.59655,0.62524 3.64748,1.31745 7.05935,4.36189 10.96069,9.7803 l 0.68903,0.95696 -0.29173,0.41157 c -3.12966,4.41522 -5.58311,7.10568 -8.07954,8.86004 -2.79735,1.96583 -6.02049,2.89355 -8.63714,2.48605 l 0,0 z"
       id="path8724"
       inkscape:connector-curvature="0" />
    <path
       style="fill:#ff3300;fill-opacity:1;fill-rule:evenodd;stroke:none"
       d="m 241.56569,384.80883 c -0.78212,-0.12181 -1.51245,-0.36113 -2.25793,-0.73991 -3.10913,-1.57977 -5.24165,-4.9046 -5.7622,-8.9839 -0.14898,-1.16744 -0.10461,-3.26662 0.0923,-4.36696 0.4233,-2.36555 1.29878,-4.29677 2.71061,-5.97933 1.33407,-1.58989 3.18685,-2.72478 4.97937,-3.05006 1.6404,-0.29766 3.66881,-0.0711 5.59655,0.62524 3.64748,1.31745 7.05935,4.36189 10.96069,9.78029 l 0.68903,0.95697 -0.29173,0.41157 c -3.12966,4.41522 -5.58311,7.10567 -8.07954,8.86004 -2.79735,1.96583 -6.02049,2.89355 -8.63714,2.48605 l 0,0 z"
       id="path8726"
       inkscape:connector-curvature="0" />
    <path
       style="fill:#ff3300;fill-opacity:1;fill-rule:evenodd;stroke:none"
       d="m 251.02917,360.67843 c 4.16974,-2.16415 6.67261,-5.04617 9.24103,-8.60485 3.30336,3.63679 5.02075,6.79674 9.08389,8.53895 -4.21091,2.13347 -6.77499,5.25405 -9.07951,8.43335 -3.4401,-3.90587 -5.41634,-6.53374 -9.24541,-8.36745 z"
       id="path8728"
       inkscape:connector-curvature="0"
       sodipodi:nodetypes="ccccc" />
    <path
       style="fill:#ff3300;fill-opacity:1;fill-rule:evenodd;stroke:none"
       d="m 276.12762,359.81535 c -0.82958,-0.10583 -2.06925,-0.41226 -2.80733,-0.69392 -1.35426,-0.5168 -3.01748,-1.50187 -4.36764,-2.5868 -0.84766,-0.68114 -2.84843,-2.68279 -3.72274,-3.72438 -1.012,-1.20561 -2.46226,-3.1127 -3.37621,-4.43972 l -0.22858,-0.33189 0.64535,-0.89466 c 3.50719,-4.86211 6.39791,-7.63798 9.58861,-9.20768 1.57971,-0.77715 3.06754,-1.20053 4.71875,-1.34278 1.65291,-0.14239 3.08433,0.13651 4.46875,0.87071 3.00124,1.59163 5.03158,4.79563 5.60663,8.84758 0.11992,0.84497 0.10241,3.14746 -0.0307,4.03125 -0.73348,4.87168 -3.75442,8.57787 -7.66972,9.40946 -0.64536,0.13707 -2.00609,0.16733 -2.82521,0.0628 z"
       id="path8730"
       inkscape:connector-curvature="0" />
    <path
       style="fill:#ff3300;fill-opacity:1;fill-rule:evenodd;stroke:none"
       d="m 276.12762,384.81535 c -0.82958,-0.10583 -2.06925,-0.41226 -2.80733,-0.69392 -1.35426,-0.5168 -3.01748,-1.50187 -4.36764,-2.5868 -0.84766,-0.68114 -2.84843,-2.68279 -3.72274,-3.72438 -1.012,-1.20561 -2.46226,-3.1127 -3.37621,-4.43972 l -0.22858,-0.33189 0.64535,-0.89467 c 3.50719,-4.8621 6.39791,-7.63797 9.58861,-9.20767 1.57971,-0.77715 3.06754,-1.20053 4.71875,-1.34278 1.65291,-0.14239 3.08433,0.13651 4.46875,0.87071 3.00124,1.59163 5.03158,4.79562 5.60663,8.84758 0.11992,0.84497 0.10241,3.14745 -0.0307,4.03125 -0.73348,4.87167 -3.75442,8.57787 -7.66972,9.40946 -0.64536,0.13707 -2.00609,0.16733 -2.82521,0.0628 z"
       id="path8732"
       inkscape:connector-curvature="0" />
  </g>
</svg>
